Units are S.I. units (second, meters, Newtons, ...)
Angles are in degrees.
name squat
datarows 42
datacolumns 15
range 1.051020 1.469388
endheader
time exo_pelvis_tx exo_pelvis_ty exo_pelvis_tz exo_pelvis_tilt exo_pelvis_list exo_pelvis_rotation exo_hip_r exo_hip_l exo_knee_r exo_knee_l r_ankle_coupling l_ankle_coupling r_foot l_foot 
1.051020	-0.345526	0.945373	-0.000002	0.000000	0.000000	0.000000	-0.432707	-4.992626	-3.259968	2.135478	3.590561	2.857152	0.000633	-0.000097
1.061224	-0.345526	0.945373	-0.000002	0.000000	0.000000	0.000000	0.479016	-4.992626	-4.338494	2.135478	3.736942	2.857152	0.000737	-0.000097
1.071429	-0.345526	0.945373	-0.000002	0.000000	0.000000	0.000000	1.390738	-4.992626	-5.417020	2.135478	3.883323	2.857152	0.000841	-0.000097
1.081633	-0.345526	0.945373	-0.000002	0.000000	0.000000	0.000000	2.302460	-4.992626	-6.495546	2.135478	4.029705	2.857152	0.000946	-0.000097
1.091837	-0.345526	0.945373	-0.000002	0.000000	0.000000	0.000000	3.214183	-4.992626	-7.574072	2.135478	4.176086	2.857152	0.001050	-0.000097
1.102041	-0.345526	0.945373	-0.000002	0.000000	0.000000	0.000000	4.125905	-4.992626	-8.652598	2.135478	4.322467	2.857152	0.001154	-0.000097
1.112245	-0.345526	0.945373	-0.000002	0.000000	0.000000	0.000000	5.037628	-4.992626	-9.731124	2.135478	4.468849	2.857152	0.001258	-0.000097
1.122449	-0.345526	0.945373	-0.000002	0.000000	0.000000	0.000000	5.949350	-4.992626	-10.809650	2.135478	4.615230	2.857152	0.001363	-0.000097
1.132653	-0.345526	0.945373	-0.000002	0.000000	0.000000	0.000000	6.861073	-4.992626	-11.888175	2.135478	4.761612	2.857152	0.001467	-0.000097
1.142857	-0.345526	0.945373	-0.000002	0.000000	0.000000	0.000000	7.772795	-4.992626	-12.966701	2.135478	4.907993	2.857152	0.001571	-0.000097
1.153061	-0.345526	0.945373	-0.000002	0.000000	0.000000	0.000000	8.684517	-4.992626	-14.045227	2.135478	5.054374	2.857152	0.001675	-0.000097
1.163265	-0.345526	0.945373	-0.000002	0.000000	0.000000	0.000000	9.596240	-4.992626	-15.123753	2.135478	5.200756	2.857152	0.001780	-0.000097
1.173469	-0.345526	0.945373	-0.000002	0.000000	0.000000	0.000000	10.507962	-4.992626	-16.202279	2.135478	5.347137	2.857152	0.001884	-0.000097
1.183673	-0.345526	0.945373	-0.000002	0.000000	0.000000	0.000000	11.419685	-4.992626	-17.280805	2.135478	5.493518	2.857152	0.001988	-0.000097
1.193878	-0.345526	0.945373	-0.000002	0.000000	0.000000	0.000000	12.331407	-4.992626	-18.359331	2.135478	5.639900	2.857152	0.002093	-0.000097
1.204082	-0.345526	0.945373	-0.000002	0.000000	0.000000	0.000000	13.243130	-4.992626	-19.437857	2.135478	5.786281	2.857152	0.002197	-0.000097
1.214286	-0.345526	0.945373	-0.000002	0.000000	0.000000	0.000000	14.154852	-4.992626	-20.516383	2.135478	5.932662	2.857152	0.002301	-0.000097
1.224490	-0.345526	0.945373	-0.000002	0.000000	0.000000	0.000000	15.066574	-4.992626	-21.594909	2.135478	6.079044	2.857152	0.002405	-0.000097
1.234694	-0.345526	0.945373	-0.000002	0.000000	0.000000	0.000000	15.978297	-4.992626	-22.673435	2.135478	6.225425	2.857152	0.002510	-0.000097
1.244898	-0.345526	0.945373	-0.000002	0.000000	0.000000	0.000000	16.890019	-4.992626	-23.751961	2.135478	6.371806	2.857152	0.002614	-0.000097
1.255102	-0.345526	0.945373	-0.000002	0.000000	0.000000	0.000000	17.801742	-4.992626	-24.830487	2.135478	6.518188	2.857152	0.002718	-0.000097
1.265306	-0.345526	0.945373	-0.000002	0.000000	0.000000	0.000000	18.713464	-4.992626	-25.909013	2.135478	6.664569	2.857152	0.002823	-0.000097
1.275510	-0.345526	0.945373	-0.000002	0.000000	0.000000	0.000000	19.625187	-4.992626	-26.987539	2.135478	6.810950	2.857152	0.002927	-0.000097
1.285714	-0.345526	0.945373	-0.000002	0.000000	0.000000	0.000000	20.536909	-4.992626	-28.066065	2.135478	6.957332	2.857152	0.003031	-0.000097
1.295918	-0.345526	0.945373	-0.000002	0.000000	0.000000	0.000000	21.448631	-4.992626	-29.144591	2.135478	7.103713	2.857152	0.003135	-0.000097
1.306122	-0.345526	0.945373	-0.000002	0.000000	0.000000	0.000000	22.360354	-4.992626	-30.223117	2.135478	7.250094	2.857152	0.003240	-0.000097
1.316327	-0.345526	0.945373	-0.000002	0.000000	0.000000	0.000000	23.272076	-4.992626	-31.301643	2.135478	7.396476	2.857152	0.003344	-0.000097
1.326531	-0.345526	0.945373	-0.000002	0.000000	0.000000	0.000000	24.183799	-4.992626	-32.380169	2.135478	7.542857	2.857152	0.003448	-0.000097
1.336735	-0.345526	0.945373	-0.000002	0.000000	0.000000	0.000000	25.095521	-4.992626	-33.458695	2.135478	7.689238	2.857152	0.003552	-0.000097
1.346939	-0.345526	0.945373	-0.000002	0.000000	0.000000	0.000000	26.007244	-4.992626	-34.537221	2.135478	7.835620	2.857152	0.003657	-0.000097
1.357143	-0.345526	0.945373	-0.000002	0.000000	0.000000	0.000000	26.918966	-4.992626	-35.615747	2.135478	7.982001	2.857152	0.003761	-0.000097
1.367347	-0.345526	0.945373	-0.000002	0.000000	0.000000	0.000000	27.830688	-4.992626	-36.694273	2.135478	8.128382	2.857152	0.003865	-0.000097
1.377551	-0.345526	0.945373	-0.000002	0.000000	0.000000	0.000000	28.742411	-4.992626	-37.772798	2.135478	8.274764	2.857152	0.003970	-0.000097
1.387755	-0.345526	0.945373	-0.000002	0.000000	0.000000	0.000000	29.654133	-4.992626	-38.851324	2.135478	8.421145	2.857152	0.004074	-0.000097
1.397959	-0.345526	0.945373	-0.000002	0.000000	0.000000	0.000000	30.565856	-4.992626	-39.929850	2.135478	8.567527	2.857152	0.004178	-0.000097
1.408163	-0.345526	0.945373	-0.000002	0.000000	0.000000	0.000000	31.477578	-4.992626	-41.008376	2.135478	8.713908	2.857152	0.004282	-0.000097
1.418367	-0.345526	0.945373	-0.000002	0.000000	0.000000	0.000000	32.389301	-4.992626	-42.086902	2.135478	8.860289	2.857152	0.004387	-0.000097
1.428571	-0.345526	0.945373	-0.000002	0.000000	0.000000	0.000000	33.301023	-4.992626	-43.165428	2.135478	9.006671	2.857152	0.004491	-0.000097
1.438776	-0.345526	0.945373	-0.000002	0.000000	0.000000	0.000000	34.212745	-4.992626	-44.243954	2.135478	9.153052	2.857152	0.004595	-0.000097
1.448980	-0.345526	0.945373	-0.000002	0.000000	0.000000	0.000000	35.124468	-4.992626	-45.322480	2.135478	9.299433	2.857152	0.004699	-0.000097
1.459184	-0.345526	0.945373	-0.000002	0.000000	0.000000	0.000000	36.036190	-4.992626	-46.401006	2.135478	9.445815	2.857152	0.004804	-0.000097
1.469388	-0.345526	0.945373	-0.000002	0.000000	0.000000	0.000000	36.947913	-4.992626	-47.479532	2.135478	9.592196	2.857152	0.004908	-0.000097
